<?xml version="1.0" encoding="utf-8"?>
<!-- Generator: Adobe Illustrator 19.2.0, SVG Export Plug-In . SVG Version: 6.00 Build 0)  -->
<svg version="1.1" id="Layer_1" xmlns="http://www.w3.org/2000/svg" xmlns:xlink="http://www.w3.org/1999/xlink" x="0px" y="0px"
	 viewBox="0 0 512 512" style="enable-background:new 0 0 512 512;" xml:space="preserve">
<style type="text/css">
	.st0{fill:#5F2699;}
	.st1{fill:#703BBC;}
</style>
<path class="st0" d="M221.4,230.4c-4.7,37.4-38.9,63.9-76.3,59.2c-34.1-4.3-59.7-33.3-59.7-67.7c0-11.9,3.1-23.6,9-33.9
	c12.1-21.3,34.7-34.4,59.2-34.4h0.5c-0.3,2.8-0.5,5.7-0.5,8.5c0,35.5,27.2,65.1,62.5,68C217.9,230.3,219.6,230.4,221.4,230.4z"/>
<path class="st1" d="M216.2,230.1c-23.4,29.5-66.4,34.5-95.9,11.1C104,228.3,94.5,208.7,94.4,188c12.1-21.3,34.7-34.4,59.2-34.4h0.5
	c-0.3,2.8-0.5,5.7-0.5,8.5C153.6,197.6,180.8,227.2,216.2,230.1z"/>
<path class="st0" d="M290.1,230.4c4.7,37.4,38.9,63.9,76.3,59.2c34.1-4.3,59.7-33.3,59.7-67.7c0-11.9-3.1-23.6-9-33.9
	c-12.1-21.3-34.7-34.4-59.2-34.4h-0.5c0.3,2.8,0.5,5.7,0.5,8.5c0,35.5-27.2,65.1-62.5,68C293.6,230.3,291.9,230.4,290.1,230.4z"/>
<path class="st1" d="M295.3,230.1c23.4,29.5,66.4,34.5,95.9,11.1c16.3-12.9,25.8-32.5,25.9-53.2c-12.1-21.3-34.7-34.4-59.2-34.4
	h-0.5c0.3,2.8,0.5,5.7,0.5,8.5C357.9,197.6,330.7,227.2,295.3,230.1z"/>
<path d="M153.7,298.7c-3.2,0-6.4-0.2-9.6-0.6c-42-5.3-71.9-43.8-66.6-85.8c4.8-38.3,37.6-67.2,76.2-67.2c2.4,0,5,1.1,6.6,2.9
	s2.6,4.3,2.3,6.7c-0.3,2.5-0.5,5-0.5,7.5c0,32.7,26.6,59.5,59.3,59.7c2.4,0,4.8,1.1,6.4,2.9c1.6,1.8,2.3,4.3,2,6.7
	C224.9,270.3,191.8,298.7,153.7,298.7z M145.1,162.8c-26.4,3.9-47.4,24.8-50.7,51.6c-4.1,32.7,19.1,62.6,51.8,66.7
	c29.6,3.7,57-15.1,64.9-43C174.1,232.9,145.4,201.1,145.1,162.8z"/>
<path d="M129.5,254.5c-2.2,0-4.4-0.8-6-2.5c-15.5-15.4-16.8-39.8-3.1-56.8c3-3.7,8.3-4.3,12-1.3c3.7,3,4.3,8.3,1.3,12
	c-8.2,10.2-7.4,24.8,1.9,34.1c3.3,3.3,3.4,8.7,0,12.1C133.9,253.7,131.7,254.5,129.5,254.5z"/>
<path d="M383,254.5c-2.2,0-4.4-0.8-6-2.5c-3.3-3.3-3.3-8.7,0-12.1c9.3-9.2,10.1-23.9,1.9-34.1c-3-3.7-2.4-9,1.3-12
	c3.7-3,9-2.4,12,1.3c13.7,17,12.3,41.4-3.1,56.8C387.4,253.7,385.2,254.5,383,254.5z"/>
<path d="M358.3,298.7c-38.1,0-71.3-28.5-76.2-67.2c-0.3-2.4,0.4-4.9,2-6.7s3.9-2.9,6.4-2.9c32.7-0.2,59.3-27,59.3-59.7
	c0-2.5-0.1-5-0.5-7.5c-0.3-2.4,0.5-4.9,2.1-6.7c1.6-1.8,4-2.9,6.4-2.9c39.1,0,71.9,28.9,76.7,67.2c5.3,42-24.6,80.5-66.6,85.8
	C364.7,298.5,361.5,298.7,358.3,298.7z M300.9,238.2c7.9,27.9,35.3,46.7,64.9,43c32.7-4.1,55.9-34.1,51.8-66.7
	c-3.4-26.9-24.5-47.9-50.7-51.7C366.6,201.1,337.9,232.9,300.9,238.2z"/>
<path d="M290.1,238.9h-76.8c-4.7,0-8.5-3.8-8.5-8.5s3.8-8.5,8.5-8.5h76.8c4.7,0,8.5,3.8,8.5,8.5S294.9,238.9,290.1,238.9z"/>
<path d="M358.2,162.1c-3.2,0-6.3-1.8-7.7-4.9L291.9,31.8c-4.2-9-13.3-14.8-23.2-14.8h-25.3c-9.9,0-19,5.8-23.2,14.8l-58.6,125.4
	c-2,4.3-7.1,6.1-11.3,4.1c-4.3-2-6.1-7.1-4.1-11.3l58.6-125.4C211.7,9.7,226.8,0,243.4,0h25.3c16.5,0,31.7,9.7,38.7,24.6L365.9,150
	c2,4.3,0.2,9.4-4.1,11.3C360.6,161.9,359.4,162.1,358.2,162.1z"/>
<path d="M418.1,409.6H93.9c-4.7,0-8.5-3.8-8.5-8.5s3.8-8.5,8.5-8.5h324.3c4.7,0,8.5,3.8,8.5,8.5S422.9,409.6,418.1,409.6z"/>
<path class="st0" d="M256,401.1H153.6c0,0,50.2,20.5,64.5,73.3c4.2,16.9,19.3,28.9,36.8,29.1h2.2c17.5-0.2,32.6-12.2,36.8-29.1
	c14.3-52.8,64.5-73.3,64.5-73.3H256z"/>
<path class="st1" d="M256,401.1H153.6c0,0,50.2,10.3,64.5,36.6c4.6,8.5,19.3,14.6,36.8,14.6h2.2c17.5,0,32.2-6.1,36.8-14.6
	c14.3-26.4,64.5-36.6,64.5-36.6H256z"/>
<path d="M254.9,512c-21.4-0.3-39.9-14.9-45.1-35.6c-13-47.7-59-67.3-59.5-67.5c-3.8-1.6-5.9-5.6-5.1-9.5c0.8-4,4.3-6.9,8.4-6.9
	h204.8c4.1,0,7.6,2.9,8.4,6.9c0.8,4-1.4,8-5.1,9.5c-0.5,0.2-46.5,19.7-59.5,67.6c-5.1,20.5-23.6,35.1-44.9,35.4L254.9,512L254.9,512
	z M183.8,409.6c15.9,12.5,34.4,32.6,42.5,62.5c3.3,13.3,15.1,22.6,28.7,22.8h2.1c13.4-0.2,25.2-9.5,28.5-22.6
	c8.1-30,26.7-50.2,42.6-62.7L183.8,409.6L183.8,409.6z"/>
<path d="M102.4,443.7c-1,0-2-0.2-3-0.5c-4.4-1.6-6.7-6.6-5-11c6.8-18.1,21-32.4,39.1-39.1c4.4-1.6,9.3,0.6,11,5
	c1.7,4.4-0.6,9.3-5,11c-13.5,5-24.1,15.7-29.1,29.1C109.1,441.6,105.9,443.7,102.4,443.7z"/>
<path d="M409.6,443.7c-3.5,0-6.7-2.1-8-5.5c-5-13.5-15.7-24.1-29.1-29.1c-4.4-1.6-6.6-6.6-5-11c1.7-4.4,6.6-6.6,11-5
	c18.1,6.8,32.4,21,39.1,39.1c1.6,4.4-0.6,9.3-5,11C411.6,443.6,410.6,443.7,409.6,443.7z"/>
<path d="M179.2,409.6c-4.1,0-7.8-3-8.4-7.2l-17.1-110.9c-0.7-4.7,2.5-9,7.1-9.7c4.6-0.7,9,2.5,9.7,7.1l17.1,110.9
	c0.7,4.7-2.5,9-7.1,9.7C180.1,409.6,179.6,409.6,179.2,409.6z"/>
<path d="M332.8,409.6c-0.4,0-0.9,0-1.3-0.1c-4.7-0.7-7.9-5.1-7.1-9.7l17.1-110.9c0.7-4.7,5.1-7.8,9.7-7.1c4.7,0.7,7.9,5.1,7.1,9.7
	l-17.1,110.9C340.6,406.6,337,409.6,332.8,409.6z"/>
<path d="M235.5,93.9c-4.1,0-7.7-3-8.4-7.1C218,31.8,245.4,3.7,246.6,2.5c3.3-3.3,8.7-3.3,12.1,0c3.3,3.3,3.3,8.7,0,12
	c-1,1.1-22.3,23.7-14.7,69.4c0.8,4.7-2.4,9-7,9.8C236.5,93.8,236,93.9,235.5,93.9z"/>
<path d="M276.5,93.9c-0.5,0-0.9,0-1.4-0.1c-4.7-0.8-7.8-5.2-7-9.8c7.6-45.8-13.8-68.5-14.7-69.4c-3.3-3.4-3.2-8.8,0.1-12
	c3.3-3.3,8.7-3.3,12,0c1.2,1.2,28.6,29.3,19.4,84.2C284.2,90.9,280.6,93.9,276.5,93.9z"/>
</svg>
