<?xml version="1.0" encoding="utf-8"?>
<!-- Generator: Adobe Illustrator 19.2.0, SVG Export Plug-In . SVG Version: 6.00 Build 0)  -->
<svg version="1.1" id="Layer_2" xmlns="http://www.w3.org/2000/svg" xmlns:xlink="http://www.w3.org/1999/xlink" x="0px" y="0px"
	 viewBox="0 0 512 512" style="enable-background:new 0 0 512 512;" xml:space="preserve">
<style type="text/css">
	.st0{fill:#9A185E;}
	.st1{fill:#111111;}
	.st2{fill:#4B2698;}
	.st3{fill:#3D2189;}
	.st4{fill:#F8F3F3;}
	.st5{fill:#5F2699;}
	.st6{fill:#A82074;}
	.st7{fill:#738AFA;}
	.st8{fill:#2B35AE;}
</style>
<path class="st0" d="M276.3,56h-39.6v47.8h9.7h29.9h29.9V85.9C306.2,69.4,292.8,56,276.3,56z"/>
<path class="st1" d="M306.2,107.7h-69.6c-2.2,0-4-1.8-4-4V56c0-2.2,1.8-4,4-4h39.6c18.7,0,33.9,15.2,33.9,33.9v17.8
	C310.2,105.9,308.4,107.7,306.2,107.7z M240.7,99.7h61.6V85.9c0-14.3-11.6-25.9-25.9-25.9h-35.6V99.7z"/>
<path class="st2" d="M265.2,103.7V85.9c0-16.5-13.4-29.9-29.9-29.9s-29.9,13.4-29.9,29.9v17.8L265.2,103.7L265.2,103.7z"/>
<path class="st3" d="M243.3,57.2c-2.6-0.7-5.2-1.2-8-1.2c-16.5,0-29.9,13.4-29.9,29.9v17.8h16V85.9
	C221.4,72.1,230.7,60.7,243.3,57.2z"/>
<path class="st1" d="M265.2,107.7h-59.9c-2.2,0-4-1.8-4-4V85.9c0-18.7,15.2-33.9,33.9-33.9c18.7,0,33.9,15.2,33.9,33.9v17.8
	C269.2,105.9,267.4,107.7,265.2,107.7z M209.4,99.7h51.9V85.9c0-14.3-11.6-25.9-25.9-25.9c-14.3,0-25.9,11.6-25.9,25.9V99.7z"/>
<path class="st4" d="M248.6,21.8h16V56h-16L248.6,21.8z"/>
<path class="st1" d="M264.6,60h-16c-2.2,0-4-1.8-4-4V21.8c0-2.2,1.8-4,4-4h16c2.2,0,4,1.8,4,4V56C268.6,58.2,266.8,60,264.6,60z
	 M252.6,52h8V25.8h-8V52z"/>
<path class="st0" d="M280,95.4h-48v7c-71,20.8-123,86.3-123,164s52,143.3,123,164.1v7h48c94.5,0,171-76.6,171-171
	C451,172,374.5,95.4,280,95.4z"/>
<path class="st1" d="M280,441.5h-48c-2.2,0-4-1.8-4-4v-4c-72.6-22.6-123-90.8-123-167c0-76.2,50.4-144.4,123-167v-4c0-2.2,1.8-4,4-4
	h48c96.5,0,175,78.5,175,175C455,362.9,376.5,441.5,280,441.5z M236,433.5h44c92.1,0,167-74.9,167-167c0-92.1-74.9-167-167-167h-44
	v3c0,1.8-1.2,3.3-2.9,3.8C162.4,126.9,113,192.8,113,266.4c0,73.7,49.4,139.6,120.1,160.2c1.7,0.5,2.9,2.1,2.9,3.8V433.5z"/>
<path class="st2" d="M326.7,171.7c46,20.4,76.3,55.2,76.3,94.7c0-94.4-76.6-171-171-171C271.5,95.4,306.3,125.7,326.7,171.7
	L326.7,171.7z"/>
<path class="st5" d="M326.7,361.2c-20.4,46-55.2,76.3-94.7,76.3c94.5,0,171-76.6,171-171C403,306,372.7,340.8,326.7,361.2z"/>
<path class="st6" d="M137.3,171.7c18.4-8.2,39.4-14,61.9-17c8-36.3,19.7-59.3,32.8-59.3C192.5,95.4,157.7,125.7,137.3,171.7
	L137.3,171.7z"/>
<path class="st6" d="M264.8,154.8c22.5,2.9,43.5,8.8,61.9,17c-20.4-46-55.2-76.3-94.7-76.3C245.1,95.4,256.8,118.5,264.8,154.8
	L264.8,154.8z"/>
<path class="st5" d="M199.2,378.1c-22.5-2.9-43.5-8.8-61.9-17c20.4,46,55.2,76.3,94.7,76.3C218.9,437.5,207.2,414.4,199.2,378.1z"/>
<path class="st6" d="M326.7,361.2c-18.4,8.2-39.4,14-61.9,17c-8,36.3-19.7,59.3-32.8,59.3C271.5,437.5,306.3,407.1,326.7,361.2
	L326.7,361.2z"/>
<path class="st7" d="M264.8,378.1c-10.6,1.4-21.6,2.1-32.8,2.1c-11.2,0-22.2-0.8-32.8-2.1c8,36.3,19.7,59.3,32.8,59.3
	C245.1,437.5,256.9,414.4,264.8,378.1z"/>
<path class="st7" d="M199.2,154.8c10.6-1.4,21.6-2.1,32.8-2.1c11.2,0,22.2,0.8,32.8,2.1c-8-36.3-19.7-59.3-32.8-59.3
	C218.9,95.4,207.2,118.5,199.2,154.8z"/>
<path class="st6" d="M61,266.4c0,39.5,30.3,74.3,76.3,94.7c-8.2-18.4-14-39.4-16.9-61.9C84,291.3,61,279.6,61,266.4z"/>
<path class="st0" d="M78.1,285.3C67.2,279.6,61,273.2,61,266.4c0,23,10.3,44.3,27.8,62.1C83.5,314.9,79.8,300.4,78.1,285.3
	L78.1,285.3z"/>
<path class="st6" d="M120.3,233.6c2.9-22.5,8.8-43.5,16.9-61.9c-46,20.4-76.3,55.2-76.3,94.7C61,253.3,84,241.6,120.3,233.6z"/>
<path class="st0" d="M88.8,204.3C71.3,222.2,61,243.5,61,266.4c0-6.8,6.2-13.2,17.1-18.9C79.8,232.5,83.5,218,88.8,204.3z"/>
<path class="st6" d="M326.7,171.7c8.2,18.4,14,39.4,17,61.9c36.3,8,59.3,19.7,59.3,32.8C403,226.9,372.7,192.1,326.7,171.7
	L326.7,171.7z"/>
<path class="st6" d="M343.7,299.2c-2.9,22.5-8.8,43.5-17,61.9c46-20.4,76.3-55.2,76.3-94.7C403,279.6,380,291.3,343.7,299.2z"/>
<path class="st4" d="M190,224.4c1.7-26.2,4.9-49.9,9.2-69.7c-22.5,2.9-43.5,8.8-61.9,17c-8.2,18.4-14,39.4-16.9,61.9
	C140.1,229.3,163.8,226.1,190,224.4L190,224.4z"/>
<path class="st4" d="M343.7,233.6c-2.9-22.5-8.8-43.5-17-61.9c-18.4-8.2-39.4-14-61.9-17c4.3,19.8,7.5,43.5,9.2,69.7
	C300.2,226.1,323.9,229.3,343.7,233.6z"/>
<path class="st4" d="M274,308.4c-1.7,26.2-4.9,49.9-9.2,69.7c22.5-2.9,43.5-8.8,61.9-17c8.2-18.4,14-39.4,17-61.9
	C323.9,303.6,300.2,306.8,274,308.4z"/>
<path class="st4" d="M120.3,299.2c2.9,22.5,8.8,43.5,16.9,61.9c18.4,8.2,39.4,14,61.9,17c-4.3-19.8-7.5-43.5-9.2-69.7
	C163.8,306.8,140.1,303.6,120.3,299.2L120.3,299.2z"/>
<path class="st5" d="M232,309.8c-14.5,0-28.5-0.5-42-1.4c1.7,26.2,4.9,49.9,9.2,69.7c10.6,1.4,21.6,2.1,32.8,2.1
	c11.2,0,22.2-0.8,32.8-2.1c4.3-19.8,7.5-43.5,9.2-69.7C260.5,309.3,246.5,309.8,232,309.8z"/>
<path class="st6" d="M232,223.1c14.5,0,28.5,0.5,42,1.4c-1.7-26.2-4.9-49.9-9.2-69.7c-10.6-1.4-21.6-2.1-32.8-2.1
	c-11.2,0-22.2,0.8-32.8,2.1c-4.3,19.8-7.5,43.5-9.2,69.7C203.5,223.6,217.5,223.1,232,223.1z"/>
<path class="st7" d="M343.7,233.6c1.4,10.6,2.1,21.6,2.1,32.8c0,11.2-0.8,22.2-2.1,32.8c36.3-8,59.3-19.7,59.3-32.8
	C403,253.3,380,241.6,343.7,233.6z"/>
<path class="st7" d="M120.3,299.2c-1.4-10.6-2.1-21.6-2.1-32.8c0-11.2,0.8-22.2,2.1-32.8C84,241.6,61,253.3,61,266.4
	C61,279.6,84,291.3,120.3,299.2z"/>
<path class="st8" d="M77,266.4c0-6.4,0.4-12.7,1.1-18.9C67.2,253.3,61,259.7,61,266.4s6.2,13.2,17.1,18.9
	C77.4,279.1,77,272.8,77,266.4z"/>
<path class="st6" d="M275.4,266.4c0,14.5-0.5,28.5-1.4,42c26.2-1.7,49.9-4.9,69.7-9.2c1.4-10.6,2.1-21.6,2.1-32.8
	c0-11.2-0.8-22.2-2.1-32.8c-19.8-4.3-43.5-7.5-69.7-9.2C274.9,237.9,275.4,251.9,275.4,266.4z"/>
<path class="st6" d="M190,224.4c-26.2,1.7-49.9,4.9-69.7,9.2c-1.4,10.6-2.1,21.6-2.1,32.8c0,11.2,0.8,22.2,2.1,32.8
	c19.8,4.3,43.5,7.5,69.7,9.2c-0.9-13.5-1.4-27.5-1.4-42C188.6,251.9,189.1,237.9,190,224.4z"/>
<path class="st2" d="M274,224.4c-13.5-0.9-27.5-1.4-42-1.4c-14.5,0-28.5,0.5-42,1.4c-0.9,13.5-1.4,27.5-1.4,42
	c0,14.5,0.5,28.5,1.4,42c13.5,0.9,27.5,1.4,42,1.4c14.5,0,28.5-0.5,42-1.4c0.9-13.5,1.4-27.5,1.4-42
	C275.4,251.9,274.9,237.9,274,224.4z"/>
<path class="st1" d="M403,270.4c-2.2,0-4-1.8-4-4c0-36.5-27.6-70.5-73.9-91.1c-0.9-0.4-1.6-1.1-2-2c-20.5-46.3-54.6-73.9-91.1-73.9
	c-2.2,0-4-1.8-4-4s1.8-4,4-4c96.5,0,175,78.5,175,175C407,268.6,405.2,270.4,403,270.4z M329.8,168.7c27.8,12.6,49.2,30,62.3,50
	c-16.1-53.7-58.5-96.2-112.2-112.2C299.8,119.5,317.2,140.9,329.8,168.7z"/>
<path class="st2" d="M137.3,361.2C91.3,340.8,61,306,61,266.4s30.3-74.3,76.3-94.7c20.4-46,55.2-76.3,94.7-76.3
	c-94.4,0-171,76.6-171,171c0,94.5,76.6,171,171,171C192.5,437.5,157.7,407.1,137.3,361.2z"/>
<path class="st3" d="M88.8,204.3c19.2-49,60.2-87,111.1-101.9c7.8-3.5,16-5.8,24.5-6.6C136,99.7,65.2,170.5,61.4,258.9
	C63.3,238.8,73.2,220.2,88.8,204.3z"/>
<path class="st3" d="M88.8,328.6C73.2,312.7,63.3,294,61.4,274c3.9,88.4,74.7,159.2,163.1,163.1c-8.5-0.8-16.6-3.1-24.5-6.6
	C149,415.6,108,377.6,88.8,328.6z"/>
<g>
	<path class="st1" d="M232,441.5c-96.5,0-175-78.5-175-175c0-96.5,78.5-175,175-175c2.2,0,4,1.8,4,4s-1.8,4-4,4
		c-36.5,0-70.5,27.6-91.1,73.9c-0.4,0.9-1.1,1.6-2,2C92.6,195.9,65,230,65,266.4c0,36.5,27.6,70.5,73.9,91.1c0.9,0.4,1.6,1.1,2,2
		c20.5,46.3,54.6,73.9,91.1,73.9c2.2,0,4,1.8,4,4S234.2,441.5,232,441.5L232,441.5z M72,314.2C88,368,130.5,410.4,184.2,426.5
		c-20-13.1-37.4-34.5-50-62.3C106.4,351.6,85.1,334.2,72,314.2z M184.2,106.4C130.5,122.5,88,164.9,72,218.6
		c13.1-20,34.5-37.4,62.3-50C146.8,140.9,164.2,119.5,184.2,106.4z"/>
	<path class="st1" d="M232,441.5c-2.2,0-4-1.8-4-4s1.8-4,4-4c36.5,0,70.6-27.6,91.1-73.9c0.4-0.9,1.1-1.6,2-2
		c46.3-20.5,73.9-54.6,73.9-91.1c0-2.2,1.8-4,4-4s4,1.8,4,4C407,362.9,328.5,441.5,232,441.5L232,441.5z M329.8,364.2
		c-12.6,27.8-30,49.1-49.9,62.3C333.5,410.4,376,368,392,314.2C378.9,334.2,357.6,351.6,329.8,364.2z"/>
	<path class="st1" d="M137.3,175.7c-1,0-2.1-0.4-2.8-1.2c-1.2-1.2-1.5-2.9-0.8-4.5c21.9-49.2,58.6-78.6,98.4-78.6c2.2,0,4,1.8,4,4
		s-1.8,4-4,4c-8,0-19.8,14.8-28.9,56.2c-0.4,1.6-1.7,2.9-3.4,3.1c-21.9,2.8-42.3,8.4-60.8,16.6C138.4,175.6,137.8,175.7,137.3,175.7
		z M215.4,101.4c-27.6,6.4-52.6,28.7-70,62.7c15.7-6,32.7-10.4,50.5-12.9C200.1,132.9,206.4,113,215.4,101.4L215.4,101.4z"/>
	<path class="st1" d="M326.7,175.7c-0.5,0-1.1-0.1-1.6-0.3c-18.5-8.2-38.9-13.8-60.8-16.6c-1.7-0.2-3-1.5-3.4-3.1
		c-9.1-41.4-20.9-56.2-28.9-56.2c-2.2,0-4-1.8-4-4s1.8-4,4-4c39.8,0,76.5,29.4,98.4,78.6c0.7,1.5,0.3,3.3-0.8,4.5
		C328.8,175.3,327.8,175.7,326.7,175.7z M268.1,151.2c17.9,2.5,34.8,6.8,50.5,12.9c-17.4-33.9-42.4-56.2-70-62.7
		C257.6,113,263.9,132.9,268.1,151.2L268.1,151.2z"/>
	<path class="st1" d="M232,441.5c-39.7,0-76.5-29.4-98.4-78.7c-0.7-1.5-0.3-3.3,0.8-4.5s2.9-1.5,4.5-0.8
		c18.5,8.2,38.9,13.8,60.8,16.6c1.7,0.2,3,1.5,3.4,3.1c9.1,41.4,20.9,56.2,28.9,56.2c2.2,0,4,1.8,4,4S234.2,441.5,232,441.5
		L232,441.5z M145.4,368.8c17.4,33.9,42.4,56.2,70,62.7c-9-11.6-15.3-31.6-19.5-49.8C178,379.2,161.1,374.9,145.4,368.8L145.4,368.8
		z"/>
	<path class="st1" d="M232,441.5c-2.2,0-4-1.8-4-4s1.8-4,4-4c8,0,19.8-14.8,28.9-56.2c0.4-1.6,1.7-2.9,3.4-3.1
		c21.9-2.8,42.4-8.4,60.8-16.6c1.5-0.7,3.3-0.3,4.5,0.8s1.5,2.9,0.8,4.5C308.5,412,271.8,441.5,232,441.5L232,441.5z M268.1,381.7
		c-4.2,18.2-10.5,38.2-19.5,49.8c27.6-6.4,52.6-28.7,70-62.7C302.9,374.9,286,379.2,268.1,381.7L268.1,381.7z"/>
	<path class="st1" d="M232,441.5c-19,0-30.5-34-36.7-62.5c-0.3-1.3,0.1-2.6,1-3.6c0.9-1,2.2-1.5,3.5-1.3c21.6,2.8,43,2.8,64.6,0
		c1.3-0.2,2.6,0.3,3.5,1.3s1.2,2.3,1,3.6C262.5,407.5,251,441.5,232,441.5z M204.4,382.8c8.9,37.2,20,50.7,27.6,50.7
		s18.8-13.4,27.6-50.7C241.1,384.8,222.9,384.8,204.4,382.8L204.4,382.8z"/>
	<path class="st1" d="M264.8,158.8c-0.2,0-0.3,0-0.5,0c-21.6-2.8-43-2.8-64.6,0c-1.3,0.2-2.6-0.3-3.5-1.3c-0.9-1-1.2-2.3-1-3.6
		c6.2-28.5,17.7-62.5,36.7-62.5c19,0,30.5,34,36.7,62.5c0.3,1.3-0.1,2.6-1,3.6C267,158.3,265.9,158.8,264.8,158.8L264.8,158.8z
		 M232,99.4c-7.6,0-18.7,13.4-27.6,50.7c18.5-2,36.8-2,55.3,0C250.7,112.9,239.6,99.4,232,99.4L232,99.4z"/>
	<path class="st1" d="M137.3,365.2c-0.5,0-1.1-0.1-1.6-0.3C86.4,343,57,306.2,57,266.4c0-2.2,1.8-4,4-4s4,1.8,4,4
		c0,8,14.8,19.8,56.2,28.9c1.6,0.4,2.9,1.7,3.1,3.4c2.8,21.9,8.4,42.3,16.6,60.8c0.7,1.5,0.3,3.3-0.8,4.5
		C139.3,364.8,138.3,365.2,137.3,365.2z M66.9,283.1c6.4,27.6,28.7,52.6,62.7,70c-6-15.8-10.4-32.7-12.9-50.6
		C98.5,298.4,78.5,292.1,66.9,283.1z"/>
	<path class="st1" d="M61,270.4c-2.2,0-4-1.8-4-4c0-39.7,29.4-76.5,78.6-98.4c1.5-0.7,3.3-0.3,4.5,0.8c1.2,1.2,1.5,2.9,0.8,4.5
		c-8.2,18.4-13.8,38.9-16.6,60.8c-0.2,1.7-1.5,3-3.1,3.4C79.8,246.6,65,258.4,65,266.4C65,268.6,63.2,270.4,61,270.4z M129.6,179.8
		c-33.9,17.4-56.2,42.4-62.7,70c11.6-9,31.6-15.3,49.8-19.5C119.2,212.5,123.6,195.5,129.6,179.8L129.6,179.8z"/>
	<path class="st1" d="M403,270.4c-2.2,0-4-1.8-4-4c0-8-14.8-19.8-56.2-28.9c-1.6-0.4-2.9-1.7-3.1-3.4c-2.8-21.9-8.4-42.3-16.6-60.8
		c-0.7-1.5-0.3-3.3,0.8-4.5s2.9-1.5,4.5-0.8c49.2,21.9,78.7,58.6,78.7,98.4C407,268.6,405.2,270.4,403,270.4L403,270.4z
		 M347.3,230.3c18.2,4.2,38.2,10.5,49.8,19.5c-6.4-27.6-28.7-52.6-62.7-70C340.4,195.5,344.8,212.5,347.3,230.3L347.3,230.3z"/>
	<path class="st1" d="M326.7,365.2c-1,0-2.1-0.4-2.8-1.2c-1.2-1.2-1.5-2.9-0.8-4.5c8.2-18.5,13.8-38.9,16.6-60.8
		c0.2-1.7,1.5-3,3.1-3.4c41.4-9.1,56.2-20.9,56.2-28.9c0-2.2,1.8-4,4-4s4,1.8,4,4c0,39.7-29.4,76.5-78.7,98.4
		C327.8,365.1,327.3,365.2,326.7,365.2L326.7,365.2z M347.3,302.5c-2.5,17.9-6.8,34.8-12.9,50.6c33.9-17.4,56.2-42.4,62.7-70
		C385.5,292.1,365.5,298.4,347.3,302.5L347.3,302.5z"/>
	<path class="st1" d="M120.3,237.6c-1,0-2-0.4-2.7-1.1c-1-0.9-1.4-2.2-1.3-3.5c2.9-22.7,8.7-43.9,17.2-63c0.4-0.9,1.1-1.6,2-2
		c19.2-8.5,40.4-14.3,63-17.3c1.3-0.2,2.6,0.3,3.5,1.3c0.9,1,1.2,2.3,1,3.6c-4.3,19.8-7.5,43.7-9.1,69.1c-0.1,2-1.7,3.6-3.7,3.7
		c-25.4,1.6-49.3,4.8-69.1,9.1C120.9,237.6,120.6,237.6,120.3,237.6z M140.3,174.7c-7.2,16.5-12.3,34.6-15.2,53.8
		c18-3.6,39-6.3,61.2-7.9c1.5-22.2,4.2-43.1,7.9-61.2C174.9,162.4,156.8,167.6,140.3,174.7L140.3,174.7z"/>
	<path class="st1" d="M343.7,237.6c-0.3,0-0.6,0-0.9-0.1c-19.8-4.3-43.7-7.5-69.1-9.1c-2-0.1-3.6-1.7-3.7-3.7
		c-1.6-25.4-4.8-49.3-9.1-69.1c-0.3-1.3,0.1-2.6,1-3.6c0.9-1,2.2-1.5,3.5-1.3c22.6,2.9,43.8,8.8,63,17.3c0.9,0.4,1.6,1.1,2,2
		c8.5,19.2,14.3,40.4,17.3,63c0.2,1.3-0.3,2.6-1.3,3.5C345.6,237.3,344.7,237.6,343.7,237.6L343.7,237.6z M277.8,220.7
		c22.2,1.5,43.1,4.2,61.2,7.9c-2.9-19.2-8.1-37.3-15.2-53.8c-16.5-7.2-34.6-12.3-53.8-15.2C273.5,177.6,276.2,198.5,277.8,220.7
		L277.8,220.7z"/>
	<path class="st1" d="M264.8,382.1c-1.1,0-2.2-0.5-2.9-1.3c-0.9-1-1.2-2.3-1-3.6c4.3-19.8,7.5-43.7,9.1-69.1c0.1-2,1.7-3.6,3.7-3.7
		c25.4-1.6,49.3-4.8,69.1-9.1c1.3-0.3,2.6,0.1,3.6,1c1,0.9,1.4,2.2,1.3,3.5c-2.9,22.6-8.7,43.9-17.3,63c-0.4,0.9-1.1,1.6-2,2
		c-19.2,8.5-40.4,14.3-63,17.3C265.2,382.1,265,382.1,264.8,382.1L264.8,382.1z M277.8,312.2c-1.5,22.1-4.2,43.1-7.9,61.2
		c19.2-2.9,37.3-8.1,53.8-15.2c7.2-16.5,12.3-34.6,15.2-53.8C320.9,308,299.9,310.6,277.8,312.2z"/>
	<path class="st1" d="M199.2,382.1c-0.2,0-0.3,0-0.5,0c-22.6-2.9-43.9-8.7-63-17.3c-0.9-0.4-1.6-1.1-2-2
		c-8.5-19.2-14.3-40.4-17.2-63.1c-0.2-1.3,0.3-2.6,1.3-3.5c1-0.9,2.3-1.2,3.6-1c19.8,4.3,43.6,7.5,69.1,9.1c2,0.1,3.6,1.7,3.7,3.7
		c1.6,25.4,4.8,49.3,9.1,69.1c0.3,1.3-0.1,2.6-1,3.6C201.4,381.7,200.3,382.1,199.2,382.1L199.2,382.1z M140.3,358.1
		c16.5,7.2,34.6,12.3,53.8,15.2c-3.6-18.1-6.3-39-7.9-61.2c-22.2-1.5-43.1-4.2-61.2-7.9C128,323.5,133.1,341.6,140.3,358.1z"/>
	<path class="st1" d="M232,384.3c-11,0-22.2-0.7-33.3-2.2c-1.7-0.2-3-1.5-3.4-3.1c-4.4-20.2-7.6-44.5-9.3-70.3
		c-0.1-1.2,0.4-2.3,1.2-3.1s2-1.3,3.1-1.2c27.9,1.8,55.6,1.8,83.5,0c1.1-0.1,2.3,0.4,3.1,1.2s1.2,1.9,1.2,3.1
		c-1.6,25.8-4.8,50.1-9.3,70.3c-0.4,1.7-1.7,2.9-3.4,3.1C254.2,383.5,243,384.3,232,384.3L232,384.3z M202.5,374.5
		c19.8,2.3,39.2,2.3,59,0c3.8-18.1,6.6-39.3,8.2-61.8c-25.2,1.5-50.1,1.5-75.4,0C195.9,335.3,198.7,356.5,202.5,374.5L202.5,374.5z"
		/>
	<path class="st1" d="M190,228.4c-1.1,0-2.1-0.4-2.8-1.2c-0.8-0.8-1.2-1.9-1.2-3.1c1.6-25.8,4.9-50.1,9.3-70.3
		c0.4-1.6,1.7-2.9,3.4-3.1c22.3-2.9,44.3-2.9,66.6,0c1.7,0.2,3,1.5,3.4,3.1c4.4,20.2,7.6,44.5,9.3,70.3c0.1,1.2-0.4,2.3-1.2,3.1
		s-2,1.3-3.1,1.2c-27.9-1.8-55.5-1.8-83.5,0C190.2,228.4,190.1,228.4,190,228.4L190,228.4z M202.5,158.4c-3.8,18-6.6,39.2-8.2,61.8
		c25.3-1.5,50.2-1.5,75.4,0c-1.6-22.5-4.4-43.7-8.2-61.8C241.8,156,222.3,156,202.5,158.4L202.5,158.4z"/>
	<path class="st1" d="M343.7,303.2c-1,0-2-0.4-2.7-1.1c-1-0.9-1.4-2.2-1.3-3.5c1.4-10.8,2.1-21.6,2.1-32.3c0-10.6-0.7-21.5-2.1-32.3
		c-0.2-1.3,0.3-2.6,1.3-3.5c1-0.9,2.3-1.2,3.6-1C373,236,407,247.4,407,266.4s-34,30.5-62.5,36.7C344.3,303.2,344,303.2,343.7,303.2
		L343.7,303.2z M348.3,238.8c1,9.3,1.5,18.5,1.5,27.6c0,9.1-0.5,18.4-1.5,27.6c37.2-8.9,50.7-20,50.7-27.6S385.6,247.7,348.3,238.8
		L348.3,238.8z"/>
	<path class="st1" d="M120.3,303.2c-0.3,0-0.6,0-0.9-0.1C91,296.9,57,285.4,57,266.4s34-30.5,62.5-36.7c1.3-0.3,2.6,0.1,3.6,1
		c1,0.9,1.4,2.2,1.3,3.5c-1.4,10.8-2.1,21.7-2.1,32.3c0,10.6,0.7,21.5,2.1,32.3c0.2,1.3-0.3,2.6-1.3,3.5
		C122.3,302.9,121.3,303.2,120.3,303.2z M115.7,238.8c-37.2,8.9-50.7,20-50.7,27.6s13.4,18.7,50.7,27.6c-1-9.2-1.5-18.5-1.5-27.6
		C114.2,257.3,114.7,248.1,115.7,238.8L115.7,238.8z"/>
	<path class="st1" d="M274,312.4c-1.1,0-2.1-0.4-2.8-1.2c-0.8-0.8-1.2-1.9-1.2-3.1c0.9-13.9,1.4-28,1.4-41.7s-0.5-27.8-1.4-41.7
		c-0.1-1.2,0.4-2.3,1.2-3.1s1.9-1.2,3.1-1.2c25.8,1.6,50.1,4.9,70.3,9.3c1.6,0.4,2.9,1.7,3.1,3.4c1.4,11.2,2.2,22.4,2.2,33.3
		c0,11-0.7,22.2-2.2,33.3c-0.2,1.7-1.5,3-3.1,3.4c-20.2,4.4-44.5,7.6-70.3,9.3C274.2,312.4,274.1,312.4,274,312.4z M278.3,228.7
		c0.7,12.6,1.1,25.3,1.1,37.7s-0.4,25.1-1.1,37.7c22.6-1.6,43.8-4.4,61.8-8.2c1.2-9.9,1.8-19.8,1.8-29.5c0-9.7-0.6-19.6-1.8-29.5
		C322,233.2,300.8,230.4,278.3,228.7z"/>
	<path class="st1" d="M190,312.4c-0.1,0-0.2,0-0.3,0c-25.8-1.6-50.1-4.9-70.3-9.3c-1.6-0.4-2.9-1.7-3.1-3.4
		c-1.4-11.1-2.2-22.3-2.2-33.3c0-11,0.7-22.2,2.2-33.3c0.2-1.7,1.5-3,3.1-3.4c20.2-4.4,44.5-7.6,70.3-9.3c1.2-0.1,2.3,0.4,3.1,1.2
		s1.2,1.9,1.2,3.1c-0.9,14.2-1.4,28.2-1.4,41.7c0,13.5,0.5,27.5,1.4,41.7c0.1,1.2-0.4,2.3-1.2,3.1C192.1,312,191.1,312.4,190,312.4z
		 M123.9,295.9c18,3.8,39.2,6.6,61.8,8.2c-0.7-12.8-1.1-25.5-1.1-37.7s0.4-24.9,1.1-37.7c-22.6,1.6-43.8,4.4-61.8,8.2
		c-1.2,9.9-1.8,19.8-1.8,29.5C122.2,276.2,122.8,286.1,123.9,295.9z"/>
	<path class="st1" d="M232,313.8c-13.9,0-28.1-0.5-42.3-1.4c-2-0.1-3.6-1.7-3.7-3.7c-0.9-14.4-1.4-28.6-1.4-42.3s0.5-27.9,1.4-42.3
		c0.1-2,1.7-3.6,3.7-3.7c28.3-1.8,56.3-1.8,84.5,0c2,0.1,3.6,1.7,3.7,3.7c0.9,14.1,1.4,28.3,1.4,42.3s-0.5,28.2-1.4,42.3
		c-0.1,2-1.7,3.6-3.7,3.7C260.2,313.3,245.9,313.8,232,313.8L232,313.8z M193.8,304.7c25.6,1.5,50.9,1.5,76.5,0
		c0.8-12.8,1.2-25.6,1.2-38.2s-0.4-25.4-1.2-38.2c-25.5-1.5-50.8-1.5-76.5,0c-0.8,13-1.2,25.8-1.2,38.2S193,291.7,193.8,304.7z"/>
</g>
<path class="st8" d="M89.1,41l19.2,10.5L89.1,62.1L78.5,81.3L68,62.1L48.8,51.6L68,41l10.5-19.3L89.1,41z"/>
<path class="st1" d="M78.5,85.3c-1.5,0-2.8-0.8-3.5-2.1L65.1,65l-18.2-10c-1.3-0.7-2.1-2-2.1-3.5s0.8-2.8,2.1-3.5l18.2-10l10-18.3
	c1.4-2.6,5.6-2.6,7,0l10,18.2l18.2,10c1.3,0.7,2.1,2,2.1,3.5s-0.8,2.8-2.1,3.5L92,65l-10,18.2C81.4,84.5,80,85.3,78.5,85.3z
	 M57.1,51.6l12.8,7c0.7,0.4,1.2,0.9,1.6,1.6l7,12.8l7-12.8c0.4-0.7,0.9-1.2,1.6-1.6l12.8-7l-12.8-7c-0.7-0.4-1.2-0.9-1.6-1.6
	l-7-12.8l-7,12.8c-0.4,0.7-0.9,1.2-1.6,1.6L57.1,51.6z"/>
<path class="st5" d="M443.6,41l19.3,10.5l-19.3,10.5L433,81.3l-10.5-19.2l-19.2-10.5L422.5,41L433,21.8L443.6,41z"/>
<path class="st1" d="M433,85.3c-1.5,0-2.8-0.8-3.5-2.1l-10-18.2l-18.2-10c-1.3-0.7-2.1-2-2.1-3.5s0.8-2.8,2.1-3.5l18.2-10l10-18.2
	c1.4-2.6,5.6-2.6,7,0l10,18.2l18.2,10c1.3,0.7,2.1,2,2.1,3.5s-0.8,2.8-2.1,3.5l-18.2,10l-10,18.2C435.8,84.5,434.5,85.3,433,85.3
	L433,85.3z M411.6,51.6l12.8,7c0.7,0.4,1.2,0.9,1.6,1.6l7,12.8l7-12.8c0.4-0.7,0.9-1.2,1.6-1.6l12.8-7l-12.8-7
	c-0.7-0.4-1.2-0.9-1.6-1.6l-7-12.8L426,43c-0.4,0.7-0.9,1.2-1.6,1.6L411.6,51.6z"/>
<path class="st5" d="M89.1,442.6l19.2,10.5l-19.2,10.5L78.5,483L68,463.7l-19.3-10.5L68,442.6l10.5-19.2L89.1,442.6z"/>
<path class="st1" d="M78.5,487c-1.5,0-2.8-0.8-3.5-2.1l-10-18.2l-18.2-10c-1.3-0.7-2.1-2-2.1-3.5s0.8-2.8,2.1-3.5l18.2-10l10-18.2
	c1.4-2.6,5.6-2.6,7,0l10,18.2l18.2,10c1.3,0.7,2.1,2,2.1,3.5s-0.8,2.8-2.1,3.5l-18.2,10l-10,18.2C81.4,486.2,80,487,78.5,487z
	 M57.1,453.2l12.8,7c0.7,0.4,1.2,0.9,1.6,1.6l7,12.8l7-12.8c0.4-0.7,0.9-1.2,1.6-1.6l12.8-7l-12.8-7c-0.7-0.4-1.2-0.9-1.6-1.6
	l-7-12.8l-7,12.8c-0.4,0.7-0.9,1.2-1.6,1.6L57.1,453.2z"/>
<path class="st8" d="M443.6,442.6l19.3,10.5l-19.3,10.5L433,483l-10.5-19.3l-19.2-10.5l19.2-10.5l10.5-19.2L443.6,442.6z"/>
<path class="st1" d="M433,487c-1.5,0-2.8-0.8-3.5-2.1l-10-18.2l-18.2-10c-1.3-0.7-2.1-2-2.1-3.5s0.8-2.8,2.1-3.5l18.2-10l10-18.2
	c1.4-2.6,5.6-2.6,7,0l10,18.2l18.2,10c1.3,0.7,2.1,2,2.1,3.5s-0.8,2.8-2.1,3.5l-18.2,10l-10,18.2C435.8,486.2,434.5,487,433,487z
	 M411.6,453.2l12.8,7c0.7,0.4,1.2,0.9,1.6,1.6l7,12.8l7-12.8c0.4-0.7,0.9-1.2,1.6-1.6l12.8-7l-12.8-7c-0.7-0.4-1.2-0.9-1.6-1.6
	l-7-12.8l-7,12.8c-0.4,0.7-0.9,1.2-1.6,1.6L411.6,453.2z"/>
</svg>
